<?xml version="1.0" encoding="UTF-8" standalone="no"?>
<!DOCTYPE svg PUBLIC "-//W3C//DTD SVG 1.1//EN"
 "http://www.w3.org/Graphics/SVG/1.1/DTD/svg11.dtd">
<!-- Generated by graphviz version 7.1.0 (20230121.1956)
 -->
<!-- Pages: 1 -->
<svg width="286pt" height="337pt"
 viewBox="0.00 0.00 286.00 337.00" xmlns="http://www.w3.org/2000/svg" xmlns:xlink="http://www.w3.org/1999/xlink">
<g id="graph0" class="graph" transform="scale(1 1) rotate(0) translate(4 333)">
<polygon fill="white" stroke="none" points="-4,4 -4,-333 282,-333 282,4 -4,4"/>
<text text-anchor="middle" x="139" y="-313.8" font-family="Times New Roman,serif" font-size="14.00">Lista de Mensajes Todos los Usuarios</text>
<!-- nsamuel -->
<g id="node1" class="node">
<title>nsamuel</title>
<polygon fill="lightgrey" stroke="none" points="278,-174 0,-174 0,0 278,0 278,-174"/>
<polygon fill="#bb8fce" stroke="none" points="11,-148 11,-167 267,-167 267,-148 11,-148"/>
<polygon fill="none" stroke="black" points="11,-148 11,-167 267,-167 267,-148 11,-148"/>
<text text-anchor="start" x="92" y="-155.4" font-family="Arial" font-weight="bold" font-size="12.00">Usuario: samuel</text>
<polygon fill="#e74c3c" stroke="none" points="11,-127 11,-146 84,-146 84,-127 11,-127"/>
<polygon fill="none" stroke="black" points="11,-127 11,-146 84,-146 84,-127 11,-127"/>
<text text-anchor="start" x="27.5" y="-133.4" font-family="Arial" font-size="12.00"> Fecha </text>
<polygon fill="#f39c12" stroke="none" points="86,-127 86,-146 129,-146 129,-127 86,-127"/>
<polygon fill="none" stroke="black" points="86,-127 86,-146 129,-146 129,-127 86,-127"/>
<text text-anchor="start" x="91.5" y="-133.4" font-family="Arial" font-size="12.00"> Hora </text>
<polygon fill="#f1c40f" stroke="none" points="131,-127 131,-146 267,-146 267,-127 131,-127"/>
<polygon fill="none" stroke="black" points="131,-127 131,-146 267,-146 267,-127 131,-127"/>
<text text-anchor="start" x="177.5" y="-133.4" font-family="Arial" font-size="12.00"> Pefiles </text>
<polygon fill="#f1948a" stroke="none" points="11,-67 11,-125 84,-125 84,-67 11,-67"/>
<polygon fill="none" stroke="black" points="11,-67 11,-125 84,-125 84,-67 11,-67"/>
<text text-anchor="start" x="14" y="-92.9" font-family="Arial" font-size="12.00"> 01/04/2023 </text>
<polygon fill="#f8c471" stroke="none" points="86,-67 86,-125 129,-125 129,-67 86,-67"/>
<polygon fill="none" stroke="black" points="86,-67 86,-125 129,-125 129,-67 86,-67"/>
<text text-anchor="start" x="89" y="-92.9" font-family="Arial" font-size="12.00"> 09:31 </text>
<polygon fill="#f7dc6f" stroke="none" points="131,-67 131,-125 267,-125 267,-67 131,-67"/>
<polygon fill="none" stroke="black" points="131,-67 131,-125 267,-125 267,-67 131,-67"/>
<text text-anchor="start" x="197" y="-112.4" font-family="Arial" font-size="12.00"> </text>
<text text-anchor="start" x="147.5" y="-99.4" font-family="Arial" font-size="12.00">deportista: 10.71% </text>
<text text-anchor="start" x="134" y="-86.4" font-family="Arial" font-size="12.00">cultura saludable: 25.0% </text>
<text text-anchor="start" x="197" y="-73.4" font-family="Arial" font-size="12.00"> </text>
<polygon fill="#f1948a" stroke="none" points="11,-7 11,-65 84,-65 84,-7 11,-7"/>
<polygon fill="none" stroke="black" points="11,-7 11,-65 84,-65 84,-7 11,-7"/>
<text text-anchor="start" x="14" y="-32.9" font-family="Arial" font-size="12.00"> 01/04/2023 </text>
<polygon fill="#f8c471" stroke="none" points="86,-7 86,-65 129,-65 129,-7 86,-7"/>
<polygon fill="none" stroke="black" points="86,-7 86,-65 129,-65 129,-7 86,-7"/>
<text text-anchor="start" x="89" y="-32.9" font-family="Arial" font-size="12.00"> 09:31 </text>
<polygon fill="#f7dc6f" stroke="none" points="131,-7 131,-65 267,-65 267,-7 131,-7"/>
<polygon fill="none" stroke="black" points="131,-7 131,-65 267,-65 267,-7 131,-7"/>
<text text-anchor="start" x="197" y="-52.4" font-family="Arial" font-size="12.00"> </text>
<text text-anchor="start" x="154.5" y="-39.4" font-family="Arial" font-size="12.00">deportista: 0.0% </text>
<text text-anchor="start" x="137" y="-26.4" font-family="Arial" font-size="12.00">cultura saludable: 0.0% </text>
<text text-anchor="start" x="197" y="-13.4" font-family="Arial" font-size="12.00"> </text>
<polygon fill="none" stroke="black" points="8,-4 8,-170 270,-170 270,-4 8,-4"/>
</g>
<!-- nmanuel -->
<g id="node2" class="node">
<title>nmanuel</title>
<polygon fill="lightgrey" stroke="none" points="278,-306 0,-306 0,-192 278,-192 278,-306"/>
<polygon fill="#bb8fce" stroke="none" points="11,-280 11,-299 267,-299 267,-280 11,-280"/>
<polygon fill="none" stroke="black" points="11,-280 11,-299 267,-299 267,-280 11,-280"/>
<text text-anchor="start" x="91.5" y="-287.4" font-family="Arial" font-weight="bold" font-size="12.00">Usuario: manuel</text>
<polygon fill="#e74c3c" stroke="none" points="11,-259 11,-278 84,-278 84,-259 11,-259"/>
<polygon fill="none" stroke="black" points="11,-259 11,-278 84,-278 84,-259 11,-259"/>
<text text-anchor="start" x="27.5" y="-265.4" font-family="Arial" font-size="12.00"> Fecha </text>
<polygon fill="#f39c12" stroke="none" points="86,-259 86,-278 129,-278 129,-259 86,-259"/>
<polygon fill="none" stroke="black" points="86,-259 86,-278 129,-278 129,-259 86,-259"/>
<text text-anchor="start" x="91.5" y="-265.4" font-family="Arial" font-size="12.00"> Hora </text>
<polygon fill="#f1c40f" stroke="none" points="131,-259 131,-278 267,-278 267,-259 131,-259"/>
<polygon fill="none" stroke="black" points="131,-259 131,-278 267,-278 267,-259 131,-259"/>
<text text-anchor="start" x="177.5" y="-265.4" font-family="Arial" font-size="12.00"> Pefiles </text>
<polygon fill="#f1948a" stroke="none" points="11,-199 11,-257 84,-257 84,-199 11,-199"/>
<polygon fill="none" stroke="black" points="11,-199 11,-257 84,-257 84,-199 11,-199"/>
<text text-anchor="start" x="14" y="-224.9" font-family="Arial" font-size="12.00"> 01/04/2023 </text>
<polygon fill="#f8c471" stroke="none" points="86,-199 86,-257 129,-257 129,-199 86,-199"/>
<polygon fill="none" stroke="black" points="86,-199 86,-257 129,-257 129,-199 86,-199"/>
<text text-anchor="start" x="89" y="-224.9" font-family="Arial" font-size="12.00"> 09:31 </text>
<polygon fill="#f7dc6f" stroke="none" points="131,-199 131,-257 267,-257 267,-199 131,-199"/>
<polygon fill="none" stroke="black" points="131,-199 131,-257 267,-257 267,-199 131,-199"/>
<text text-anchor="start" x="197" y="-244.4" font-family="Arial" font-size="12.00"> </text>
<text text-anchor="start" x="151" y="-231.4" font-family="Arial" font-size="12.00">deportista: 2.17% </text>
<text text-anchor="start" x="134" y="-218.4" font-family="Arial" font-size="12.00">cultura saludable: 6.52% </text>
<text text-anchor="start" x="197" y="-205.4" font-family="Arial" font-size="12.00"> </text>
<polygon fill="none" stroke="black" points="8,-196 8,-302 270,-302 270,-196 8,-196"/>
</g>
</g>
</svg>
